<?xml version="1.0" encoding="UTF-8" standalone="no"?>
<!DOCTYPE svg PUBLIC "-//W3C//DTD SVG 1.1//EN"
 "http://www.w3.org/Graphics/SVG/1.1/DTD/svg11.dtd">
<!-- Generated by graphviz version 2.40.1 (20161225.0304)
 -->
<!-- Title: %3 Pages: 1 -->
<svg width="618pt" height="404pt"
 viewBox="0.00 0.00 617.76 404.00" xmlns="http://www.w3.org/2000/svg" xmlns:xlink="http://www.w3.org/1999/xlink">
<g id="graph0" class="graph" transform="scale(1 1) rotate(0) translate(4 400)">
<title>%3</title>
<polygon fill="#ffffff" stroke="transparent" points="-4,4 -4,-400 613.7602,-400 613.7602,4 -4,4"/>
<!-- [root] aws_instance.firstserver -->
<g id="node1" class="node">
<title>[root] aws_instance.firstserver</title>
<polygon fill="none" stroke="#000000" points="531.2916,-252 381.0357,-252 381.0357,-216 531.2916,-216 531.2916,-252"/>
<text text-anchor="middle" x="456.1636" y="-229.8" font-family="Times,serif" font-size="14.00" fill="#000000">aws_instance.firstserver</text>
</g>
<!-- [root] aws_subnet.subnet2 -->
<g id="node4" class="node">
<title>[root] aws_subnet.subnet2</title>
<polygon fill="none" stroke="#000000" points="420.5402,-180 291.7871,-180 291.7871,-144 420.5402,-144 420.5402,-180"/>
<text text-anchor="middle" x="356.1636" y="-157.8" font-family="Times,serif" font-size="14.00" fill="#000000">aws_subnet.subnet2</text>
</g>
<!-- [root] aws_instance.firstserver&#45;&gt;[root] aws_subnet.subnet2 -->
<g id="edge1" class="edge">
<title>[root] aws_instance.firstserver&#45;&gt;[root] aws_subnet.subnet2</title>
<path fill="none" stroke="#000000" d="M430.9294,-215.8314C418.3757,-206.7927 403.0353,-195.7476 389.5245,-186.0198"/>
<polygon fill="#000000" stroke="#000000" points="391.5502,-183.1655 381.3898,-180.1628 387.4601,-188.8463 391.5502,-183.1655"/>
</g>
<!-- [root] data.aws_ami.ubuntu -->
<g id="node6" class="node">
<title>[root] data.aws_ami.ubuntu</title>
<polygon fill="none" stroke="#000000" points="519.6363,-108 384.691,-108 384.691,-72 519.6363,-72 519.6363,-108"/>
<text text-anchor="middle" x="452.1636" y="-85.8" font-family="Times,serif" font-size="14.00" fill="#000000">data.aws_ami.ubuntu</text>
</g>
<!-- [root] aws_instance.firstserver&#45;&gt;[root] data.aws_ami.ubuntu -->
<g id="edge2" class="edge">
<title>[root] aws_instance.firstserver&#45;&gt;[root] data.aws_ami.ubuntu</title>
<path fill="none" stroke="#000000" d="M455.657,-215.7623C454.9748,-191.201 453.7539,-147.2474 452.9513,-118.3541"/>
<polygon fill="#000000" stroke="#000000" points="456.4426,-117.9885 452.6661,-108.0896 449.4453,-118.183 456.4426,-117.9885"/>
</g>
<!-- [root] aws_security_group.subnetsecurity -->
<g id="node2" class="node">
<title>[root] aws_security_group.subnetsecurity</title>
<polygon fill="none" stroke="#000000" points="362.7848,-252 149.5425,-252 149.5425,-216 362.7848,-216 362.7848,-252"/>
<text text-anchor="middle" x="256.1636" y="-229.8" font-family="Times,serif" font-size="14.00" fill="#000000">aws_security_group.subnetsecurity</text>
</g>
<!-- [root] aws_vpc.environment&#45;example&#45;one -->
<g id="node5" class="node">
<title>[root] aws_vpc.environment&#45;example&#45;one</title>
<polygon fill="none" stroke="#000000" points="365.3678,-108 148.9594,-108 148.9594,-72 365.3678,-72 365.3678,-108"/>
<text text-anchor="middle" x="257.1636" y="-85.8" font-family="Times,serif" font-size="14.00" fill="#000000">aws_vpc.environment&#45;example&#45;one</text>
</g>
<!-- [root] aws_security_group.subnetsecurity&#45;&gt;[root] aws_vpc.environment&#45;example&#45;one -->
<g id="edge3" class="edge">
<title>[root] aws_security_group.subnetsecurity&#45;&gt;[root] aws_vpc.environment&#45;example&#45;one</title>
<path fill="none" stroke="#000000" d="M256.2903,-215.7623C256.4609,-191.201 256.7661,-147.2474 256.9667,-118.3541"/>
<polygon fill="#000000" stroke="#000000" points="260.4684,-118.1137 257.038,-108.0896 253.4686,-118.065 260.4684,-118.1137"/>
</g>
<!-- [root] aws_subnet.subnet1 -->
<g id="node3" class="node">
<title>[root] aws_subnet.subnet1</title>
<polygon fill="none" stroke="#000000" points="131.5402,-252 2.7871,-252 2.7871,-216 131.5402,-216 131.5402,-252"/>
<text text-anchor="middle" x="67.1636" y="-229.8" font-family="Times,serif" font-size="14.00" fill="#000000">aws_subnet.subnet1</text>
</g>
<!-- [root] aws_subnet.subnet1&#45;&gt;[root] aws_vpc.environment&#45;example&#45;one -->
<g id="edge4" class="edge">
<title>[root] aws_subnet.subnet1&#45;&gt;[root] aws_vpc.environment&#45;example&#45;one</title>
<path fill="none" stroke="#000000" d="M91.2273,-215.7623C125.2049,-190.0108 187.3096,-142.942 225.149,-114.2637"/>
<polygon fill="#000000" stroke="#000000" points="227.4398,-116.9192 233.2954,-108.0896 223.2116,-111.3404 227.4398,-116.9192"/>
</g>
<!-- [root] aws_subnet.subnet2&#45;&gt;[root] aws_vpc.environment&#45;example&#45;one -->
<g id="edge5" class="edge">
<title>[root] aws_subnet.subnet2&#45;&gt;[root] aws_vpc.environment&#45;example&#45;one</title>
<path fill="none" stroke="#000000" d="M331.1818,-143.8314C318.8708,-134.8779 303.8529,-123.9558 290.5699,-114.2955"/>
<polygon fill="#000000" stroke="#000000" points="292.2835,-111.214 282.1375,-108.1628 288.1663,-116.8752 292.2835,-111.214"/>
</g>
<!-- [root] provider.aws -->
<g id="node7" class="node">
<title>[root] provider.aws</title>
<polygon fill="none" stroke="#000000" points="354.1636,-36 275.5553,-18 354.1636,0 432.772,-18 354.1636,-36"/>
<text text-anchor="middle" x="354.1636" y="-13.8" font-family="Times,serif" font-size="14.00" fill="#000000">provider.aws</text>
</g>
<!-- [root] aws_vpc.environment&#45;example&#45;one&#45;&gt;[root] provider.aws -->
<g id="edge6" class="edge">
<title>[root] aws_vpc.environment&#45;example&#45;one&#45;&gt;[root] provider.aws</title>
<path fill="none" stroke="#000000" d="M281.6408,-71.8314C295.4912,-61.5507 312.8383,-48.6744 327.0938,-38.0931"/>
<polygon fill="#000000" stroke="#000000" points="329.5677,-40.6157 335.5113,-31.845 325.3955,-34.9949 329.5677,-40.6157"/>
</g>
<!-- [root] data.aws_ami.ubuntu&#45;&gt;[root] provider.aws -->
<g id="edge7" class="edge">
<title>[root] data.aws_ami.ubuntu&#45;&gt;[root] provider.aws</title>
<path fill="none" stroke="#000000" d="M427.4341,-71.8314C413.309,-61.4537 395.584,-48.4313 381.1058,-37.7943"/>
<polygon fill="#000000" stroke="#000000" points="383.1394,-34.9452 373.0083,-31.845 378.9948,-40.5864 383.1394,-34.9452"/>
</g>
<!-- [root] meta.count&#45;boundary (count boundary fixup) -->
<g id="node8" class="node">
<title>[root] meta.count&#45;boundary (count boundary fixup)</title>
<ellipse fill="none" stroke="#000000" cx="418.1636" cy="-306" rx="191.6931" ry="18"/>
<text text-anchor="middle" x="418.1636" y="-301.8" font-family="Times,serif" font-size="14.00" fill="#000000">[root] meta.count&#45;boundary (count boundary fixup)</text>
</g>
<!-- [root] meta.count&#45;boundary (count boundary fixup)&#45;&gt;[root] aws_instance.firstserver -->
<g id="edge8" class="edge">
<title>[root] meta.count&#45;boundary (count boundary fixup)&#45;&gt;[root] aws_instance.firstserver</title>
<path fill="none" stroke="#000000" d="M427.7527,-287.8314C431.9954,-279.7925 437.0757,-270.1666 441.7596,-261.2918"/>
<polygon fill="#000000" stroke="#000000" points="444.8732,-262.8908 446.4455,-252.4133 438.6825,-259.6235 444.8732,-262.8908"/>
</g>
<!-- [root] meta.count&#45;boundary (count boundary fixup)&#45;&gt;[root] aws_security_group.subnetsecurity -->
<g id="edge9" class="edge">
<title>[root] meta.count&#45;boundary (count boundary fixup)&#45;&gt;[root] aws_security_group.subnetsecurity</title>
<path fill="none" stroke="#000000" d="M378.534,-288.3868C356.7169,-278.6903 329.4263,-266.5612 306.1566,-256.2191"/>
<polygon fill="#000000" stroke="#000000" points="307.352,-252.9203 296.7924,-252.0572 304.509,-259.317 307.352,-252.9203"/>
</g>
<!-- [root] meta.count&#45;boundary (count boundary fixup)&#45;&gt;[root] aws_subnet.subnet1 -->
<g id="edge10" class="edge">
<title>[root] meta.count&#45;boundary (count boundary fixup)&#45;&gt;[root] aws_subnet.subnet1</title>
<path fill="none" stroke="#000000" d="M329.6639,-289.9752C277.4953,-280.2537 209.9812,-267.1996 141.6892,-252.2889"/>
<polygon fill="#000000" stroke="#000000" points="142.1274,-248.8018 131.6094,-250.0757 140.6261,-255.6389 142.1274,-248.8018"/>
</g>
<!-- [root] provider.aws (close) -->
<g id="node9" class="node">
<title>[root] provider.aws (close)</title>
<ellipse fill="none" stroke="#000000" cx="104.1636" cy="-306" rx="104.3276" ry="18"/>
<text text-anchor="middle" x="104.1636" y="-301.8" font-family="Times,serif" font-size="14.00" fill="#000000">[root] provider.aws (close)</text>
</g>
<!-- [root] provider.aws (close)&#45;&gt;[root] aws_instance.firstserver -->
<g id="edge11" class="edge">
<title>[root] provider.aws (close)&#45;&gt;[root] aws_instance.firstserver</title>
<path fill="none" stroke="#000000" d="M172.7838,-292.4143C224.6284,-282.0943 297.8192,-267.4072 371.1862,-252.192"/>
<polygon fill="#000000" stroke="#000000" points="371.9882,-255.6002 381.0675,-250.1397 370.5647,-248.7465 371.9882,-255.6002"/>
</g>
<!-- [root] provider.aws (close)&#45;&gt;[root] aws_security_group.subnetsecurity -->
<g id="edge12" class="edge">
<title>[root] provider.aws (close)&#45;&gt;[root] aws_security_group.subnetsecurity</title>
<path fill="none" stroke="#000000" d="M140.1855,-288.937C160.6955,-279.2218 186.6357,-266.9343 208.7803,-256.4448"/>
<polygon fill="#000000" stroke="#000000" points="210.4724,-259.5161 218.0115,-252.0721 207.4758,-253.1899 210.4724,-259.5161"/>
</g>
<!-- [root] provider.aws (close)&#45;&gt;[root] aws_subnet.subnet1 -->
<g id="edge13" class="edge">
<title>[root] provider.aws (close)&#45;&gt;[root] aws_subnet.subnet1</title>
<path fill="none" stroke="#000000" d="M94.827,-287.8314C90.7394,-279.8771 85.8533,-270.369 81.3327,-261.5723"/>
<polygon fill="#000000" stroke="#000000" points="84.3098,-259.7078 76.626,-252.4133 78.0837,-262.9074 84.3098,-259.7078"/>
</g>
<!-- [root] root -->
<g id="node10" class="node">
<title>[root] root</title>
<ellipse fill="none" stroke="#000000" cx="261.1636" cy="-378" rx="46.8976" ry="18"/>
<text text-anchor="middle" x="261.1636" y="-373.8" font-family="Times,serif" font-size="14.00" fill="#000000">[root] root</text>
</g>
<!-- [root] root&#45;&gt;[root] meta.count&#45;boundary (count boundary fixup) -->
<g id="edge14" class="edge">
<title>[root] root&#45;&gt;[root] meta.count&#45;boundary (count boundary fixup)</title>
<path fill="none" stroke="#000000" d="M291.4348,-364.1177C313.8144,-353.8544 344.7325,-339.6754 370.4269,-327.892"/>
<polygon fill="#000000" stroke="#000000" points="372.0008,-331.0208 379.6315,-323.6708 369.0827,-324.658 372.0008,-331.0208"/>
</g>
<!-- [root] root&#45;&gt;[root] provider.aws (close) -->
<g id="edge15" class="edge">
<title>[root] root&#45;&gt;[root] provider.aws (close)</title>
<path fill="none" stroke="#000000" d="M230.8925,-364.1177C208.0367,-353.6361 176.2753,-339.0703 150.2675,-327.1432"/>
<polygon fill="#000000" stroke="#000000" points="151.5219,-323.868 140.9732,-322.8808 148.6039,-330.2308 151.5219,-323.868"/>
</g>
</g>
</svg>
